<svg xmlns="http://www.w3.org/2000/svg" width="500" height="500" viewBox="0 0 500 500" version="1.1"><path d="M 163.500 159.334 C 157.127 161.453, 153.789 163.538, 149.355 168.170 C 142.217 175.625, 140.505 180.043, 140.508 191 C 140.509 199.365, 140.828 201.097, 143.171 205.500 C 156.210 230, 189.482 230.043, 201.987 205.576 C 205.074 199.536, 205.474 197.873, 205.474 191.079 C 205.474 184.428, 205.037 182.517, 202.195 176.744 C 196.629 165.439, 187.129 159.135, 174.567 158.411 C 170.267 158.163, 165.934 158.525, 163.500 159.334 M 317.300 159.801 C 303.070 164.885, 294.921 176.233, 294.897 191 C 294.874 204.556, 301.048 214.275, 314 221.073 C 317.749 223.041, 320.002 223.438, 327.500 223.455 C 335.864 223.473, 336.947 223.233, 342.834 220.053 C 352.447 214.860, 358.201 206.916, 359.819 196.603 C 362.937 176.714, 349.113 159.492, 329.094 158.327 C 324.396 158.053, 321.005 158.477, 317.300 159.801 M 168.323 172.638 C 160.636 175.362, 154.023 184.823, 154.006 193.124 C 153.987 201.824, 161.156 211.117, 169.830 213.639 C 190.776 219.728, 206.347 195.037, 191.906 178.631 C 185.753 171.641, 177.241 169.478, 168.323 172.638 M 317.759 172.366 C 312.082 174.479, 309.267 176.640, 306.248 181.201 C 303.852 184.822, 303.500 186.334, 303.500 193 C 303.500 199.652, 303.855 201.182, 306.228 204.768 C 312.668 214.499, 325.792 217.507, 335.534 211.485 C 341.720 207.660, 346 200.101, 346 193 C 346 178.725, 330.703 167.548, 317.759 172.366 M 245.213 178.507 C 239.980 180.780, 239 184.523, 239.002 202.218 C 239.003 218.997, 240.076 223.209, 245 225.775 C 249.019 227.870, 255.049 226.628, 258.250 223.046 L 261 219.968 261 202.207 C 261 182.786, 260.655 181.424, 254.989 178.494 C 251.443 176.661, 249.455 176.663, 245.213 178.507 M 102 249.368 L 102 255.674 112.750 256.787 C 118.662 257.399, 129.575 258.458, 137 259.140 C 144.425 259.823, 150.783 260.796, 151.128 261.302 C 151.474 261.809, 152.076 267.572, 152.466 274.109 C 152.991 282.914, 153.606 286.520, 154.838 288.022 C 156.361 289.878, 159.019 290.228, 186.520 292.190 C 203.031 293.368, 217.748 294.029, 219.225 293.658 C 222.416 292.857, 223.302 290.265, 225.112 276.427 L 226.346 267 250.173 267 C 263.278 267, 274 267.331, 274 267.735 C 274 268.140, 274.720 273.427, 275.599 279.485 C 277.817 294.758, 277.370 294.406, 293.500 293.555 C 326.397 291.818, 343.379 290.065, 345.228 288.216 C 346.628 286.816, 347.221 283.741, 347.955 274.067 C 348.471 267.269, 349.255 261.385, 349.697 260.992 C 350.138 260.598, 358.825 259.518, 369 258.591 C 379.175 257.664, 389.863 256.640, 392.750 256.315 L 398 255.725 398 249.862 C 398 242.964, 399.832 243.408, 379.722 245.430 C 371.900 246.217, 359.981 247.409, 353.237 248.080 C 346.492 248.750, 340.192 249.870, 339.237 250.568 C 337.838 251.591, 337.305 254.436, 336.500 265.169 L 335.500 278.500 312.086 280.253 C 299.209 281.217, 288.544 281.877, 288.387 281.720 C 288.229 281.563, 287.373 276.499, 286.484 270.467 C 285.595 264.435, 284.212 258.488, 283.411 257.250 L 281.954 255 250.099 255 C 222.678 255, 218.068 255.214, 216.971 256.535 C 216.270 257.380, 214.907 263.262, 213.942 269.608 C 212.978 275.953, 212.006 281.327, 211.783 281.551 C 211.559 281.774, 200.981 281.204, 188.275 280.284 L 165.172 278.611 164.586 275.681 C 164.264 274.069, 164 270.847, 164 268.522 C 164 258.490, 162.754 251.884, 160.600 250.493 C 159.286 249.645, 148.394 248.163, 131.500 246.535 C 116.650 245.103, 103.938 243.737, 103.250 243.498 C 102.336 243.180, 102 244.759, 102 249.368 M 424.960 394 L 413.398 406 407.866 406 C 401.634 406, 401.007 406.312, 401.725 409.058 C 402.265 411.121, 405.010 411.594, 407.816 410.108 C 409.337 409.302, 412.863 408.583, 420 407.621 C 426.733 406.714, 436.690 404.651, 438.250 403.840 C 439.747 403.061, 440 401.418, 440 392.465 C 440 383.190, 439.802 382, 438.261 382 C 437.304 382, 431.319 387.400, 424.960 394" stroke="none" fill="#f6f8f9" fill-rule="evenodd"/><path d="M 205.342 30.045 C 196.279 32.481, 180.612 38.137, 175.010 40.995 L 170.711 43.188 171.431 56.844 C 171.827 64.355, 172.496 72.637, 172.917 75.248 L 173.682 79.996 169.091 82.641 C 163.612 85.798, 152.230 94.058, 146.292 99.187 L 142.024 102.874 131.400 96.370 C 125.557 92.792, 118.774 88.892, 116.327 87.703 L 111.877 85.542 107.886 90.021 C 102.246 96.350, 85.638 118.400, 83.447 122.468 L 81.614 125.872 87.356 134.499 C 90.513 139.244, 95.100 145.847, 97.549 149.173 L 102 155.220 102 199.141 C 102 233.380, 102.276 243.159, 103.250 243.498 C 103.938 243.737, 116.650 245.103, 131.500 246.535 C 148.394 248.163, 159.286 249.645, 160.600 250.493 C 162.754 251.884, 164 258.490, 164 268.522 C 164 270.847, 164.264 274.069, 164.586 275.681 L 165.172 278.611 188.275 280.284 C 200.981 281.204, 211.559 281.774, 211.783 281.551 C 212.006 281.327, 212.978 275.953, 213.942 269.608 C 214.907 263.262, 216.270 257.380, 216.971 256.535 C 218.068 255.214, 222.678 255, 250.099 255 L 281.954 255 283.411 257.250 C 284.212 258.488, 285.595 264.435, 286.484 270.467 C 287.373 276.499, 288.229 281.563, 288.387 281.720 C 288.544 281.877, 299.209 281.217, 312.086 280.253 L 335.500 278.500 336.500 265.169 C 337.305 254.436, 337.838 251.591, 339.237 250.568 C 340.192 249.870, 346.492 248.750, 353.237 248.080 C 359.981 247.409, 371.900 246.217, 379.722 245.430 C 387.543 244.644, 394.856 244, 395.972 244 C 397.979 244, 398 243.541, 398 199.577 L 398 155.153 400.373 152.327 C 405.033 146.776, 418 126.989, 418 125.429 C 418 122.318, 393.236 89.118, 388.932 86.458 C 387.721 85.709, 376.179 91.557, 366.091 98.030 L 358.683 102.785 349.591 95.614 C 344.591 91.670, 337.421 86.464, 333.657 84.044 L 326.814 79.644 327.385 74.572 C 327.698 71.782, 328.202 66.125, 328.504 62 C 328.806 57.875, 329.284 51.954, 329.566 48.841 L 330.079 43.182 324.289 40.443 C 314.157 35.649, 290.392 28.042, 285.454 28.012 C 283.809 28.002, 281.853 31.111, 275.454 43.905 L 267.500 59.811 264 59.208 C 259.229 58.387, 239.142 58.477, 235.767 59.335 C 233.148 60.001, 232.867 59.682, 229.066 51.765 C 226.884 47.219, 223.202 40.013, 220.883 35.750 C 216.100 26.957, 216.409 27.071, 205.342 30.045 M 163.500 159.334 C 157.127 161.453, 153.789 163.538, 149.355 168.170 C 142.217 175.625, 140.505 180.043, 140.508 191 C 140.509 199.365, 140.828 201.097, 143.171 205.500 C 156.210 230, 189.482 230.043, 201.987 205.576 C 205.074 199.536, 205.474 197.873, 205.474 191.079 C 205.474 184.428, 205.037 182.517, 202.195 176.744 C 196.629 165.439, 187.129 159.135, 174.567 158.411 C 170.267 158.163, 165.934 158.525, 163.500 159.334 M 317.300 159.801 C 303.070 164.885, 294.921 176.233, 294.897 191 C 294.874 204.556, 301.048 214.275, 314 221.073 C 317.749 223.041, 320.002 223.438, 327.500 223.455 C 335.864 223.473, 336.947 223.233, 342.834 220.053 C 352.447 214.860, 358.201 206.916, 359.819 196.603 C 362.937 176.714, 349.113 159.492, 329.094 158.327 C 324.396 158.053, 321.005 158.477, 317.300 159.801 M 168.323 172.638 C 160.636 175.362, 154.023 184.823, 154.006 193.124 C 153.987 201.824, 161.156 211.117, 169.830 213.639 C 190.776 219.728, 206.347 195.037, 191.906 178.631 C 185.753 171.641, 177.241 169.478, 168.323 172.638 M 317.759 172.366 C 312.082 174.479, 309.267 176.640, 306.248 181.201 C 303.852 184.822, 303.500 186.334, 303.500 193 C 303.500 199.652, 303.855 201.182, 306.228 204.768 C 312.668 214.499, 325.792 217.507, 335.534 211.485 C 341.720 207.660, 346 200.101, 346 193 C 346 178.725, 330.703 167.548, 317.759 172.366 M 245.213 178.507 C 239.980 180.780, 239 184.523, 239.002 202.218 C 239.003 218.997, 240.076 223.209, 245 225.775 C 249.019 227.870, 255.049 226.628, 258.250 223.046 L 261 219.968 261 202.207 C 261 182.786, 260.655 181.424, 254.989 178.494 C 251.443 176.661, 249.455 176.663, 245.213 178.507 M 102 263.412 C 102 281.283, 107.140 294.904, 118.341 306.712 C 141.996 331.650, 188.159 345.002, 250.707 344.999 C 323.467 344.995, 375.794 325.638, 391.960 292.746 C 396.699 283.103, 398 277.068, 398 264.726 L 398 255.725 392.750 256.315 C 389.863 256.640, 379.175 257.664, 369 258.591 C 358.825 259.518, 350.138 260.598, 349.697 260.992 C 349.255 261.385, 348.471 267.269, 347.955 274.067 C 347.221 283.741, 346.628 286.816, 345.228 288.216 C 343.379 290.065, 326.397 291.818, 293.500 293.555 C 277.370 294.406, 277.817 294.758, 275.599 279.485 C 274.720 273.427, 274 268.140, 274 267.735 C 274 267.331, 263.278 267, 250.173 267 L 226.346 267 225.112 276.427 C 223.302 290.265, 222.416 292.857, 219.225 293.658 C 217.748 294.029, 203.031 293.368, 186.520 292.190 C 159.019 290.228, 156.361 289.878, 154.838 288.022 C 153.606 286.520, 152.991 282.914, 152.466 274.109 C 152.076 267.572, 151.474 261.806, 151.128 261.296 C 150.783 260.785, 144.200 259.804, 136.500 259.116 C 128.800 258.427, 118.912 257.445, 114.526 256.932 C 101.037 255.355, 102 254.857, 102 263.412 M 425.217 389.411 L 412.728 402 405.364 402 L 398 402 398 421 L 398 440 405.225 440 L 412.451 440 424.475 452.351 C 435.924 464.110, 439.371 466.625, 441.900 465.062 C 442.707 464.563, 442.948 452.202, 442.761 420.934 L 442.500 377.500 440.103 377.161 C 438.167 376.888, 435.303 379.245, 425.217 389.411 M 424.960 394 L 413.398 406 407.866 406 C 401.634 406, 401.007 406.312, 401.725 409.058 C 402.265 411.121, 405.010 411.594, 407.816 410.108 C 409.337 409.302, 412.863 408.583, 420 407.621 C 426.733 406.714, 436.690 404.651, 438.250 403.840 C 439.747 403.061, 440 401.418, 440 392.465 C 440 383.190, 439.802 382, 438.261 382 C 437.304 382, 431.319 387.400, 424.960 394 M 47.332 387.791 C 33.256 392.819, 26.162 405.091, 27.250 422.530 C 28.108 436.280, 34.263 446.527, 44.761 451.682 C 49.735 454.124, 51.642 454.494, 59.070 454.456 C 66.331 454.418, 68.496 453.992, 73.251 451.666 C 79.608 448.555, 84.398 443.614, 87.203 437.274 C 90.360 430.137, 88.917 428.629, 76.872 426.473 C 74.385 426.027, 72.902 426.244, 72.157 427.162 C 66.027 434.708, 64.564 435.991, 61.419 436.581 C 56.084 437.582, 53.397 435.230, 51.958 428.298 C 49.609 416.983, 52.317 404.712, 57.446 403.424 C 61.523 402.401, 64.032 403.910, 66.039 408.591 L 67.929 413 74.339 413 C 82.493 413, 87.027 412.092, 87.706 410.323 C 88.737 407.637, 85.697 399.938, 81.905 395.629 C 74.498 387.215, 58.867 383.671, 47.332 387.791 M 109.834 388.318 C 95.590 394.328, 89.311 405.394, 90.212 422.902 C 90.765 433.645, 93.521 440.382, 99.688 446.066 C 108.804 454.469, 120.682 456.961, 132.900 453.032 C 136.903 451.745, 141.533 449.380, 143.728 447.501 C 157.347 435.844, 158.525 409.918, 146.080 395.744 C 138.245 386.820, 121.509 383.391, 109.834 388.318 M 158.607 388.582 C 158.273 389.452, 158 404.022, 158 420.959 C 158 447.016, 158.229 451.945, 159.489 452.991 C 160.589 453.904, 165.492 454.121, 178.239 453.820 C 194.668 453.431, 195.804 453.274, 201.800 450.547 C 213.974 445.011, 220.368 434.564, 220.277 420.361 C 220.216 410.949, 217.738 403.756, 212.658 398.244 C 204.526 389.423, 196.467 387.028, 174.857 387.012 C 161.508 387.002, 159.125 387.232, 158.607 388.582 M 224.683 387.650 C 224.307 388.026, 224 402.568, 224 419.967 C 224 443.237, 224.317 451.917, 225.200 452.800 C 226.906 454.506, 275.094 454.506, 276.800 452.800 C 278.381 451.219, 278.381 438.781, 276.800 437.200 C 275.979 436.379, 271.089 436, 261.300 436 L 247 436 247 432.538 L 247 429.075 256.250 428.788 L 265.500 428.500 265.798 421.022 C 266.174 411.617, 265.497 411, 254.809 411 L 247 411 247 408 L 247 405 260.878 405 C 271.588 405, 275.022 404.679, 275.923 403.592 C 276.647 402.720, 276.979 399.395, 276.796 394.842 L 276.500 387.500 250.933 387.233 C 236.871 387.087, 225.059 387.274, 224.683 387.650 M 282.200 388.200 C 281.319 389.081, 281 397.562, 281 420.129 C 281 446.730, 281.211 451.068, 282.571 452.429 C 283.761 453.618, 286.250 453.996, 292.821 453.985 C 297.595 453.976, 302.175 453.543, 303 453.023 C 304.149 452.298, 304.579 449.491, 304.838 441.038 L 305.177 430 312.507 430 C 323.144 430, 323 430.123, 323 421 C 323 411.869, 323.154 412, 312.418 412 L 305 412 305 408.500 L 305 405 317.929 405 C 333.451 405, 334 404.693, 334 396.010 C 334 386.266, 336.110 387, 308.093 387 C 290.221 387, 283.069 387.331, 282.200 388.200 M 335.017 389.750 C 335.027 391.484, 338.310 397.608, 343.904 406.331 L 352.775 420.163 343.388 434.700 C 338.224 442.696, 334 449.769, 334 450.419 C 334 453.114, 336.598 454, 344.509 454 C 349.452 454, 353.260 453.512, 354.262 452.750 C 355.166 452.063, 357.895 447.987, 360.326 443.693 L 364.745 435.887 367.987 441.693 C 369.770 444.887, 372.325 448.962, 373.665 450.750 L 376.102 454 385.469 454 C 390.621 454, 395.548 453.727, 396.418 453.393 C 399.534 452.197, 397.854 448.069, 388.104 432.962 L 378.209 417.629 380.761 413.565 C 382.165 411.329, 385.971 405.538, 389.219 400.696 C 392.937 395.153, 395.009 391.078, 394.812 389.696 C 394.519 387.630, 393.924 387.483, 384.789 387.214 L 375.078 386.929 370.805 394.383 L 366.532 401.838 362.232 394.419 L 357.932 387 346.466 387 L 335 387 335.017 389.750 M 458.050 390.104 C 456.027 391.789, 455.808 392.436, 456.792 393.822 C 462.913 402.450, 465.446 412.038, 464.764 424.001 C 464.261 432.819, 461.224 441.885, 457.332 446.186 C 455.490 448.221, 456.081 450.438, 458.864 451.927 C 460.580 452.846, 461.316 452.338, 464.447 448.073 C 475.980 432.361, 475.208 405.396, 462.806 390.782 L 460.500 388.064 458.050 390.104 M 48 391.903 C 36.465 395.971, 30.336 406.976, 31.209 422.054 C 32.282 440.584, 45.120 452.422, 62.206 450.636 C 68.809 449.946, 72.381 448.360, 77.545 443.826 C 80.689 441.066, 85.688 433.297, 84.820 432.520 C 84.644 432.362, 82.251 431.762, 79.502 431.185 C 75.476 430.341, 74.353 430.405, 73.731 431.515 C 69.690 438.737, 62.620 442.102, 55.789 440.055 C 50.611 438.503, 47.963 433.216, 47.265 423.032 C 46.295 408.881, 51.326 399, 59.500 399 C 63.463 399, 68.481 402.796, 69.410 406.497 C 70.006 408.873, 70.397 409, 77.127 409 L 84.217 409 83.566 406.250 C 80.555 393.520, 63.231 386.532, 48 391.903 M 111.737 391.792 C 105.155 394.153, 100.993 397.761, 97.538 404.101 C 95.099 408.578, 94.527 410.952, 94.190 418 C 93.474 432.972, 97.967 442.233, 108.500 447.500 C 113.725 450.112, 115.534 450.491, 122.500 450.432 C 131.723 450.355, 135.938 448.858, 141.770 443.589 C 147.923 438.030, 150.420 431.366, 150.420 420.500 C 150.420 409.520, 147.950 403.052, 141.482 397.090 C 134.200 390.378, 121.824 388.173, 111.737 391.792 M 162 420.615 L 162 450.231 178.750 449.823 C 194.689 449.435, 195.766 449.281, 201 446.629 C 207.775 443.196, 209.544 441.634, 212.640 436.352 C 217.723 427.678, 217.634 413.286, 212.442 404.348 C 211.115 402.064, 208.114 398.786, 205.773 397.064 C 199.092 392.152, 193.595 391, 176.818 391 L 162 391 162 420.615 M 228 420.500 L 228 450 251 450 L 274 450 274 445 L 274 440 259.700 440 C 249.911 440, 245.021 439.621, 244.200 438.800 C 242.643 437.243, 242.643 427.757, 244.200 426.200 C 244.941 425.459, 248.578 425, 253.700 425 L 262 425 262 420 L 262 415 253.700 415 C 248.578 415, 244.941 414.541, 244.200 413.800 C 242.945 412.545, 242.562 405.305, 243.607 402.582 C 244.122 401.241, 246.405 401, 258.607 401 L 273 401 273 396 L 273 391 250.500 391 L 228 391 228 420.500 M 285 420.500 L 285 450 292.968 450 L 300.937 450 301.218 438.250 L 301.500 426.500 310.250 426.211 L 319 425.922 319 421 L 319 416.078 310.250 415.789 L 301.500 415.500 301.500 408.500 L 301.500 401.500 315.750 401.223 L 330 400.945 330 395.973 L 330 391 307.500 391 L 285 391 285 420.500 M 339.625 392.250 C 340.033 392.938, 344.110 399.310, 348.684 406.410 C 353.258 413.511, 357 419.635, 357 420.019 C 357 420.403, 353.122 426.743, 348.382 434.109 C 343.642 441.474, 339.535 448.084, 339.256 448.799 C 338.864 449.803, 340.296 450.029, 345.573 449.799 L 352.397 449.500 357.586 440.500 C 361.158 434.305, 363.348 431.500, 364.616 431.500 C 365.884 431.500, 368.128 434.379, 371.829 440.750 L 377.202 450 385.601 450 C 390.220 450, 394 449.760, 394 449.467 C 394 449.173, 390.943 444.336, 387.206 438.717 C 373.919 418.737, 373.729 418.378, 375.085 415.809 C 375.755 414.539, 379.595 408.438, 383.619 402.250 L 390.935 391 384.068 391 L 377.201 391 372.828 398.750 C 369.726 404.248, 367.892 406.500, 366.517 406.500 C 365.139 406.500, 363.321 404.258, 360.234 398.750 L 355.891 391 347.386 391 C 340.853 391, 339.054 391.290, 339.625 392.250 M 447.099 398.891 L 444.697 400.737 447.318 404.172 C 451.328 409.430, 453 414.352, 453 420.903 C 453 427.929, 451.994 430.958, 447.972 436.035 C 445.050 439.725, 445.033 439.819, 446.846 442.058 C 449.211 444.979, 451.084 444.247, 454.970 438.883 C 460.675 431.007, 462.356 420.806, 459.495 411.432 C 458.057 406.722, 451.797 396.975, 450.240 397.022 C 449.833 397.034, 448.419 397.875, 447.099 398.891 M 116.217 400.561 C 111.598 403.796, 110.504 407.613, 110.502 420.500 C 110.500 431.305, 110.730 432.871, 112.813 436.220 C 118.068 444.671, 129.908 442.867, 133.123 433.127 C 134.960 427.562, 134.584 411.322, 132.500 406.212 C 129.802 399.593, 121.642 396.761, 116.217 400.561 M 178.250 401.110 C 176.288 403.135, 176.493 437.350, 178.479 439.336 C 181.364 442.221, 191.320 439.611, 195.611 434.845 C 202.885 426.767, 200.942 407.667, 192.347 402.737 C 188.176 400.346, 179.915 399.392, 178.250 401.110 M 117.123 405.570 C 114.578 408.807, 113.615 415.093, 114.220 424.524 C 114.934 435.656, 118.646 439.450, 125.857 436.418 C 129.561 434.861, 130.473 431.289, 130.323 418.913 C 130.215 409.963, 128.578 404.819, 125.455 403.621 C 122.134 402.347, 119.101 403.056, 117.123 405.570 M 181 420.347 L 181 436.950 184.250 436.332 C 192.928 434.682, 196 430.395, 196 419.933 C 196 409.874, 193.036 405.669, 185.044 404.391 L 181 403.744 181 420.347" stroke="none" fill="#4489b7" fill-rule="evenodd"/></svg>